<?xml version="1.0" encoding="utf-8"?>
<!-- Generator: Adobe Illustrator 20.1.0, SVG Export Plug-In . SVG Version: 6.00 Build 0)  -->
<svg version="1.1" id="Layer_1" xmlns="http://www.w3.org/2000/svg" xmlns:xlink="http://www.w3.org/1999/xlink" x="0px" y="0px"
	 viewBox="0 0 1600 408" style="enable-background:new 0 0 1600 408;" xml:space="preserve">
<style type="text/css">
	.st0{fill:#007BFF;}
	.st1{fill:#082E51;}
	.st2{fill:none;stroke:#007BFF;stroke-width:4.1396;stroke-linecap:round;stroke-miterlimit:10;}
	.st3{fill:none;stroke:#007BFF;stroke-width:1.6379;stroke-miterlimit:10;}
</style>
<path class="st0" d="M0,0"/>
<path class="st1" d="M0,0"/>
<g>
	<g>
		<path class="st2" d="M1446.9,210.6l12,12c2.4,2.4,2.4,6.3,0,8.9l-12,12"/>
		<line class="st2" x1="1454.3" y1="227.2" x2="981" y2="227.2"/>
	</g>
	<g>
		<path class="st2" d="M559,210.6l12,12c2.4,2.4,2.4,6.3,0,8.9l-12,12"/>
		<line class="st2" x1="566.4" y1="227.2" x2="93" y2="227.2"/>
	</g>
</g>
<g>
	<path class="st1" d="M1042.7,186h-1.9c-4.5,0-7.2,2.7-7.2,7.7v11.3h-3.8v-22.7h3.7v2.7h1c1.1-1.4,3.3-2.7,6.6-2.7h1.7V186z"/>
	<path class="st1" d="M1067.3,193.7H1050c0.1,5.4,2.6,8.6,7.2,8.6c3.2,0,5.1-1.3,5.8-3.5h3.9c-0.7,3.9-4,6.8-9.6,6.8
		c-7.1,0-11-5.2-11-12.1s4-11.7,10.9-11.7c6.8,0,10,5,10.1,10.6V193.7z M1050.3,190.5h13.1c-0.2-2.9-2.4-5.4-6.3-5.4
		C1053,185.2,1050.8,187.6,1050.3,190.5z"/>
	<path class="st1" d="M1081.7,191.3l2.6,0.4c4,0.7,6.5,2.7,6.5,6.8c0,3.7-3.2,7.1-9.3,7.1c-6.4,0-9.6-2.8-10.1-7.2h3.9
		c0.4,2.6,2.6,3.8,6,3.8s5.7-1.2,5.7-3.7c0-2-1.3-3.1-4.1-3.6l-5.1-0.9c-3.2-0.6-5.4-2.3-5.4-5.7c0-3.8,2.8-6.7,9-6.7
		c5.4,0,8.5,2.5,9,6.5h-3.8c-0.3-2.2-2.5-3.1-5.3-3.1c-2.9,0-4.9,1.1-4.9,3c0,1.8,1.1,2.4,3.4,2.8L1081.7,191.3z"/>
	<path class="st1" d="M1099.8,182.4V196c0,4.2,1.9,6.3,5.8,6.3c4,0,6.8-3.5,6.8-7.6v-12.3h3.8v22.7h-3.7v-2.4h-1
		c-1.3,1.8-3.8,3-6.8,3c-5.6,0-8.6-3.4-8.6-8.9v-14.4H1099.8z"/>
	<path class="st1" d="M1127.4,172.4v32.7h-3.8v-32.7H1127.4z"/>
	<path class="st1" d="M1145.7,182.4v3.3h-5.7v12.5c0,2.3,1,3.5,4,3.5h1.7v3.4h-1.8c-4.9,0-7.8-1.5-7.8-6.3v-13h-3.9v-3.3h3.9v-6.8
		h3.8v6.8H1145.7z"/>
	<path class="st1" d="M1185.5,193.8c0,6.7-4.1,11.9-11.2,11.9c-7.1,0-11.2-5.2-11.2-11.9c0-6.7,4-11.9,11.2-11.9
		C1181.4,181.8,1185.5,187.1,1185.5,193.8z M1181.7,193.8c0-4.5-2.3-8.6-7.3-8.6c-5,0-7.3,4.1-7.3,8.6c0,4.5,2.3,8.6,7.3,8.6
		C1179.3,202.4,1181.7,198.2,1181.7,193.8z"/>
	<path class="st1" d="M1204.4,186h-1.9c-4.5,0-7.2,2.7-7.2,7.7v11.3h-3.8v-22.7h3.7v2.7h1c1.1-1.4,3.3-2.7,6.6-2.7h1.7V186z"/>
	<path class="st1" d="M1238.3,205.1v-13.6c0-4.2-1.9-6.3-5.8-6.3c-4,0-6.8,3.6-6.8,7.6v12.3h-3.8v-22.7h3.7v2.4h1
		c1.3-1.8,3.8-3,6.8-3c5.6,0,8.6,3.4,8.6,8.9v14.4H1238.3z"/>
	<path class="st1" d="M1270,193.8c0,6.7-4.1,11.9-11.2,11.9c-7.1,0-11.2-5.2-11.2-11.9c0-6.7,4-11.9,11.2-11.9
		C1265.9,181.8,1270,187.1,1270,193.8z M1266.2,193.8c0-4.5-2.3-8.6-7.3-8.6c-5,0-7.3,4.1-7.3,8.6c0,4.5,2.3,8.6,7.3,8.6
		C1263.9,202.4,1266.2,198.2,1266.2,193.8z"/>
	<path class="st1" d="M1287,182.4v3.3h-5.7v12.5c0,2.3,1,3.5,4,3.5h1.7v3.4h-1.8c-4.9,0-7.8-1.5-7.8-6.3v-13h-3.9v-3.3h3.9v-6.8h3.8
		v6.8H1287z"/>
	<path class="st1" d="M1309.6,205.1v-13.6c0-4.1-1.9-6.3-5.8-6.3c-4,0-6.8,3.6-6.8,7.6v12.3h-3.8v-32.7h3.8v12.5h1
		c1.2-1.8,3.7-3,6.7-3c5.5,0,8.6,3.4,8.6,8.9v14.4H1309.6z"/>
	<path class="st1" d="M1320.5,176.5v-4.1h4v4.1H1320.5z M1324.4,205.1h-3.8v-22.7h3.8V205.1z"/>
	<path class="st1" d="M1348.2,205.1v-13.6c0-4.2-1.9-6.3-5.8-6.3c-4,0-6.8,3.6-6.8,7.6v12.3h-3.8v-22.7h3.7v2.4h1
		c1.3-1.8,3.8-3,6.8-3c5.6,0,8.6,3.4,8.6,8.9v14.4H1348.2z"/>
	<path class="st1" d="M1379.4,182.4V204c0,6.3-4,10.4-10.6,10.4c-5.8,0-9.6-2.4-10.3-6.9h3.8c0.7,2.7,3,3.7,6.4,3.7
		c4.7,0,6.8-2.8,6.8-7.4V202h-1c-1.2,1.6-3.4,3-6.8,3c-6.3,0-10.1-5-10.1-11.6c0-6.7,3.8-11.6,10.1-11.6c3.6,0,5.7,1.4,6.9,3h1v-2.4
		H1379.4z M1375.6,193.5c0-4.4-2.3-8.3-7.2-8.3c-4.5,0-7,3.3-7,8.3c0,4.9,2.5,8.2,7,8.2C1373.4,201.7,1375.6,197.8,1375.6,193.5z"/>
</g>
<g>
	<path class="st1" d="M218.7,202.7h-1c-1.4,1.8-3.8,3-7.1,3c-5.2,0-8.1-3.5-8.1-7.4c0-3.6,2.4-7.5,8.7-7.5h7.4v-0.9
		c0-2.7-1.6-4.7-5.5-4.7c-3.4,0-5.1,1.3-5.3,3.3h-3.8c0.3-4.2,3.9-6.6,9-6.6c5.7,0,9.4,2.7,9.4,7.8v15.4h-3.6V202.7z M218.5,195.9
		v-2.1h-6.8c-3.7,0-5.4,1.6-5.4,4.3c0,2.6,1.9,4.2,5.3,4.2C215.4,202.4,218.5,199.5,218.5,195.9z"/>
	<path class="st1" d="M242.3,186h-1.9c-4.5,0-7.2,2.7-7.2,7.7v11.3h-3.8v-22.7h3.7v2.7h1c1.1-1.4,3.3-2.7,6.6-2.7h1.7V186z"/>
	<path class="st1" d="M267.5,182.4V204c0,6.3-4,10.4-10.6,10.4c-5.8,0-9.6-2.4-10.3-6.9h3.8c0.7,2.7,3,3.7,6.4,3.7
		c4.7,0,6.8-2.8,6.8-7.4V202h-1c-1.2,1.6-3.4,3-6.8,3c-6.3,0-10.1-5-10.1-11.6c0-6.7,3.8-11.6,10.1-11.6c3.6,0,5.7,1.4,6.9,3h1v-2.4
		H267.5z M263.8,193.5c0-4.4-2.3-8.3-7.2-8.3c-4.5,0-7,3.3-7,8.3c0,4.9,2.5,8.2,7,8.2C261.5,201.7,263.8,197.8,263.8,193.5z"/>
	<path class="st1" d="M278.4,182.4V196c0,4.2,1.9,6.3,5.8,6.3c4,0,6.8-3.5,6.8-7.6v-12.3h3.8v22.7H291v-2.4h-1c-1.3,1.8-3.8,3-6.8,3
		c-5.6,0-8.6-3.4-8.6-8.9v-14.4H278.4z"/>
	<path class="st1" d="M333.4,190.4v14.7h-3.8v-14.3c0-3.7-1.4-5.6-4.4-5.6c-3.6,0-5.5,2.7-5.5,6.6v13.3h-3.8v-14.2
		c0-3.7-1.5-5.7-4.3-5.7c-3.8,0-5.6,3.2-5.6,7.3v12.6h-3.8v-22.7h3.7v2.2h1c1.1-1.8,2.9-2.8,5.8-2.8c2.7,0,4.8,1,6,3h1
		c1.4-2,3.6-3,6.4-3C331.1,181.8,333.4,185.2,333.4,190.4z"/>
	<path class="st1" d="M360.1,193.7h-17.3c0.1,5.4,2.6,8.6,7.2,8.6c3.2,0,5.1-1.3,5.8-3.5h3.9c-0.7,3.9-4,6.8-9.6,6.8
		c-7.1,0-11-5.2-11-12.1s4-11.7,10.9-11.7c6.8,0,10,5,10.1,10.6V193.7z M343,190.5h13.1c-0.2-2.9-2.4-5.4-6.3-5.4
		C345.8,185.2,343.5,187.6,343,190.5z"/>
	<path class="st1" d="M382.3,205.1v-13.6c0-4.2-1.9-6.3-5.8-6.3c-4,0-6.8,3.6-6.8,7.6v12.3H366v-22.7h3.7v2.4h1c1.3-1.8,3.8-3,6.8-3
		c5.6,0,8.6,3.4,8.6,8.9v14.4H382.3z"/>
	<path class="st1" d="M404.2,182.4v3.3h-5.7v12.5c0,2.3,1,3.5,4,3.5h1.7v3.4h-1.8c-4.9,0-7.8-1.5-7.8-6.3v-13h-3.9v-3.3h3.9v-6.8
		h3.8v6.8H404.2z"/>
	<path class="st1" d="M418.9,191.3l2.6,0.4c4,0.7,6.5,2.7,6.5,6.8c0,3.7-3.2,7.1-9.3,7.1c-6.4,0-9.6-2.8-10.1-7.2h3.9
		c0.4,2.6,2.6,3.8,6,3.8s5.7-1.2,5.7-3.7c0-2-1.3-3.1-4.1-3.6l-5.1-0.9c-3.2-0.6-5.4-2.3-5.4-5.7c0-3.8,2.8-6.7,9-6.7
		c5.4,0,8.5,2.5,9,6.5h-3.8c-0.3-2.2-2.5-3.1-5.3-3.1c-2.9,0-4.9,1.1-4.9,3c0,1.8,1.1,2.4,3.4,2.8L418.9,191.3z"/>
</g>
<g>
	<path pointer-events="none" class="st3" d="M608.4,157.4h336.9c14.4,0,26,11.6,26,26v77.5c0,14.4-11.6,26-26,26H608.4
		c-14.4,0-26-11.6-26-26v-77.5C582.4,169.2,594,157.4,608.4,157.4z"/>
	<g>
		<path class="st1" d="M697.6,218.9v19.3h-3.8v-19.3h-3.9v-3.3h3.9v-2.6c0-5.2,2.9-7.4,7.8-7.4h2.2v3.3h-2.2c-3,0-4,1.9-4,4.2v2.5
			h6.2v3.3H697.6z"/>
		<path class="st1" d="M712.3,215.6v13.6c0,4.2,1.9,6.3,5.8,6.3c4,0,6.8-3.5,6.8-7.6v-12.3h3.8v22.7H725v-2.4h-1
			c-1.3,1.8-3.8,3-6.8,3c-5.6,0-8.6-3.4-8.6-8.9v-14.4H712.3z"/>
		<path class="st1" d="M752.4,238.2v-13.6c0-4.2-1.9-6.3-5.8-6.3c-4,0-6.8,3.6-6.8,7.6v12.3h-3.8v-22.7h3.7v2.4h1
			c1.3-1.8,3.8-3,6.8-3c5.6,0,8.6,3.4,8.6,8.9v14.4H752.4z"/>
		<path class="st1" d="M782.4,231.4c-0.9,4.5-4.3,7.4-9.5,7.4c-7.1,0-11-5.2-11-11.9c0-6.8,4-11.9,11-11.9c5.4,0,8.6,3,9.4,7.2h-3.8
			c-0.7-2.3-2.5-3.8-5.6-3.8c-5.1,0-7.2,4-7.2,8.5c0,4.5,2.1,8.7,7.2,8.7c3.2,0,5.1-1.6,5.7-4.1H782.4z"/>
		<path class="st1" d="M799.1,215.6v3.3h-5.7v12.5c0,2.3,1,3.5,4,3.5h1.7v3.4h-1.8c-4.9,0-7.8-1.5-7.8-6.3v-13h-3.9v-3.3h3.9v-6.8
			h3.8v6.8H799.1z"/>
		<path class="st1" d="M805.4,209.7v-4.1h4v4.1H805.4z M809.3,238.2h-3.8v-22.7h3.8V238.2z"/>
		<path class="st1" d="M837.8,226.9c0,6.7-4.1,11.9-11.2,11.9c-7.1,0-11.2-5.2-11.2-11.9c0-6.7,4-11.9,11.2-11.9
			C833.7,215,837.8,220.2,837.8,226.9z M833.9,226.9c0-4.5-2.3-8.6-7.3-8.6c-5,0-7.3,4.1-7.3,8.6c0,4.5,2.3,8.6,7.3,8.6
			C831.6,235.5,833.9,231.4,833.9,226.9z"/>
		<path class="st1" d="M860.1,238.2v-13.6c0-4.2-1.9-6.3-5.8-6.3c-4,0-6.8,3.6-6.8,7.6v12.3h-3.8v-22.7h3.7v2.4h1
			c1.3-1.8,3.8-3,6.8-3c5.6,0,8.6,3.4,8.6,8.9v14.4H860.1z"/>
	</g>
</g>
</svg>
