<svg width="1474" height="738" viewBox="0 0 1474 738" fill="none" xmlns="http://www.w3.org/2000/svg">
<g clip-path="url(#clip0)">
<rect width="1474" height="738" fill="white"/>
<circle cx="364.5" cy="368.5" r="350.5" fill="#C7E3FF" stroke="#007BFF" stroke-width="4"/>
<circle cx="1112.5" cy="368.5" r="350.5" fill="#C7E3FF" stroke="#007BFF" stroke-width="4"/>
<path d="M120.739 304.884V372H134.745V304.884H120.739ZM204.983 322.462C199.061 322.462 194.643 324.342 191.823 328.102H189.379C186.841 324.342 182.799 322.462 177.065 322.462C171.425 322.462 167.383 324.342 165.033 328.102H162.589V323.684H149.899V372H163.059V346.056C163.059 339.57 165.691 334.118 171.989 334.118C177.253 334.118 179.321 337.784 179.321 344.082V372H192.481V345.022C192.481 338.724 195.301 334.118 201.317 334.118C206.581 334.118 208.649 337.69 208.649 344.082V372H221.809V341.544C221.809 329.888 216.545 322.462 204.983 322.462ZM259.527 333.46C267.423 333.46 271.089 339.852 271.089 347.842C271.089 355.832 267.423 362.318 259.527 362.318C251.349 362.318 247.777 355.456 247.777 347.842C247.777 340.228 251.349 333.46 259.527 333.46ZM235.087 323.684V390.8H248.247V367.582H250.691C253.229 370.966 257.083 373.222 263.757 373.222C276.447 373.222 284.249 362.6 284.249 347.842C284.249 333.272 276.541 322.462 263.757 322.462C256.989 322.462 252.853 324.812 250.221 328.102H247.777V323.684H235.087ZM340.329 345.398C340.047 332.238 331.681 322.462 317.017 322.462C302.071 322.462 292.671 332.238 292.671 347.654C292.671 363.07 301.977 373.222 317.299 373.222C330.459 373.222 337.885 366.924 339.859 357.242H326.511C325.289 360.532 322.469 362.318 317.487 362.318C309.967 362.318 306.113 357.618 305.737 349.346H340.329V345.398ZM316.923 332.332C322.939 332.332 326.135 335.716 326.887 340.604H306.207C307.429 335.716 310.625 332.332 316.923 332.332ZM384.103 323.684H379.591C371.883 323.684 368.123 326.88 366.619 329.136H364.175V323.684H351.485V372H364.645V350.85C364.645 341.168 369.251 335.904 379.403 335.904H384.103V323.684ZM423.324 372H435.45V340.604C435.45 327.632 426.614 322.462 413.548 322.462C401.892 322.462 393.244 328.196 392.962 337.502H406.028C406.404 334.212 408.942 332.332 414.206 332.332C419.94 332.332 422.76 334.87 422.76 339.852V341.074H409.882C395.594 341.074 390.236 349.628 390.236 357.148C390.236 365.702 396.44 373.222 407.344 373.222C413.736 373.222 417.966 371.248 420.88 367.864H423.324V372ZM411.95 362.788C406.592 362.788 403.396 360.532 403.396 356.114C403.396 351.696 406.78 349.628 412.42 349.628H422.76V352.636C422.76 358.652 418.342 362.788 411.95 362.788ZM464.208 323.684V310.148H451.048V323.684H443.998V334.682H451.048V357.054C451.048 368.898 459.226 372 470.224 372H474.83V360.814H470.412C465.9 360.814 464.208 358.746 464.208 355.456V334.682H474.83V323.684H464.208ZM500.142 315.412V303.662H486.794V315.412H500.142ZM500.048 323.684H486.888V372H500.048V323.684ZM522.706 372H545.548L559.46 323.684H546.018L536.43 360.25H532.388L522.424 323.684H508.982L522.706 372ZM613.333 345.398C613.051 332.238 604.685 322.462 590.021 322.462C575.075 322.462 565.675 332.238 565.675 347.654C565.675 363.07 574.981 373.222 590.303 373.222C603.463 373.222 610.889 366.924 612.863 357.242H599.515C598.293 360.532 595.473 362.318 590.491 362.318C582.971 362.318 579.117 357.618 578.741 349.346H613.333V345.398ZM589.927 332.332C595.943 332.332 599.139 335.716 599.891 340.604H579.211C580.433 335.716 583.629 332.332 589.927 332.332Z" fill="#274867"/>
<path d="M852.021 304.884V372H880.033C900.619 372 911.147 358.558 911.147 338.442C911.147 318.232 900.619 304.884 880.033 304.884H852.021ZM866.027 359.498V317.386H878.247C891.783 317.386 896.765 326.786 896.765 338.442C896.765 350.098 891.783 359.498 878.247 359.498H866.027ZM967.617 345.398C967.335 332.238 958.969 322.462 944.305 322.462C929.359 322.462 919.959 332.238 919.959 347.654C919.959 363.07 929.265 373.222 944.587 373.222C957.747 373.222 965.173 366.924 967.147 357.242H953.799C952.577 360.532 949.757 362.318 944.775 362.318C937.255 362.318 933.401 357.618 933.025 349.346H967.617V345.398ZM944.211 332.332C950.227 332.332 953.423 335.716 954.175 340.604H933.495C934.717 335.716 937.913 332.332 944.211 332.332ZM1009.51 355.738C1008.76 359.874 1005.75 362.318 1000.49 362.318C992.402 362.318 989.206 355.644 989.206 347.748C989.206 339.946 992.308 333.46 1000.49 333.46C1005.28 333.46 1008.01 335.434 1009.04 339.1H1022.11C1020.88 329.23 1012.52 322.462 1000.39 322.462C985.446 322.462 976.046 332.614 976.046 347.842C976.046 363.164 985.446 373.222 1000.39 373.222C1012.52 373.222 1021.26 366.172 1022.48 355.738H1009.51ZM1033.58 303.662V372H1046.74V303.662H1033.58ZM1090.36 372H1102.49V340.604C1102.49 327.632 1093.65 322.462 1080.58 322.462C1068.93 322.462 1060.28 328.196 1060 337.502H1073.06C1073.44 334.212 1075.98 332.332 1081.24 332.332C1086.98 332.332 1089.8 334.87 1089.8 339.852V341.074H1076.92C1062.63 341.074 1057.27 349.628 1057.27 357.148C1057.27 365.702 1063.48 373.222 1074.38 373.222C1080.77 373.222 1085 371.248 1087.92 367.864H1090.36V372ZM1078.99 362.788C1073.63 362.788 1070.43 360.532 1070.43 356.114C1070.43 351.696 1073.82 349.628 1079.46 349.628H1089.8V352.636C1089.8 358.652 1085.38 362.788 1078.99 362.788ZM1148.35 323.684H1143.84C1136.13 323.684 1132.37 326.88 1130.87 329.136H1128.42V323.684H1115.73V372H1128.89V350.85C1128.89 341.168 1133.5 335.904 1143.65 335.904H1148.35V323.684ZM1187.57 372H1199.7V340.604C1199.7 327.632 1190.86 322.462 1177.8 322.462C1166.14 322.462 1157.49 328.196 1157.21 337.502H1170.28C1170.65 334.212 1173.19 332.332 1178.45 332.332C1184.19 332.332 1187.01 334.87 1187.01 339.852V341.074H1174.13C1159.84 341.074 1154.48 349.628 1154.48 357.148C1154.48 365.702 1160.69 373.222 1171.59 373.222C1177.98 373.222 1182.21 371.248 1185.13 367.864H1187.57V372ZM1176.2 362.788C1170.84 362.788 1167.64 360.532 1167.64 356.114C1167.64 351.696 1171.03 349.628 1176.67 349.628H1187.01V352.636C1187.01 358.652 1182.59 362.788 1176.2 362.788ZM1228.46 323.684V310.148H1215.3V323.684H1208.25V334.682H1215.3V357.054C1215.3 368.898 1223.47 372 1234.47 372H1239.08V360.814H1234.66C1230.15 360.814 1228.46 358.746 1228.46 355.456V334.682H1239.08V323.684H1228.46ZM1264.39 315.412V303.662H1251.04V315.412H1264.39ZM1264.3 323.684H1251.14V372H1264.3V323.684ZM1286.95 372H1309.8L1323.71 323.684H1310.27L1300.68 360.25H1296.64L1286.67 323.684H1273.23L1286.95 372ZM1377.58 345.398C1377.3 332.238 1368.93 322.462 1354.27 322.462C1339.32 322.462 1329.92 332.238 1329.92 347.654C1329.92 363.07 1339.23 373.222 1354.55 373.222C1367.71 373.222 1375.14 366.924 1377.11 357.242H1363.76C1362.54 360.532 1359.72 362.318 1354.74 362.318C1347.22 362.318 1343.37 357.618 1342.99 349.346H1377.58V345.398ZM1354.18 332.332C1360.19 332.332 1363.39 335.716 1364.14 340.604H1343.46C1344.68 335.716 1347.88 332.332 1354.18 332.332Z" fill="#274867"/>
<path d="M223.927 450.592H194.247V454.832H206.755V488.434H211.525V454.832H223.927V450.592ZM247.197 473.488C247.038 466.916 243.222 461.033 235.272 461.033C227.163 461.033 222.393 466.598 222.393 474.813C222.393 483.028 227.057 489.123 235.378 489.123C242.003 489.123 245.872 485.625 246.72 481.067H242.162C241.367 483.611 239.141 485.201 235.378 485.201C229.866 485.201 227.004 481.385 226.845 475.025H247.197V473.488ZM235.166 464.955C239.671 464.955 242.268 467.87 242.533 471.262H227.11C227.693 467.87 230.343 464.955 235.166 464.955ZM254.211 449.903V488.434H258.716V449.903H254.211ZM267.409 449.903V488.434H271.914V449.903H267.409ZM319.102 488.434V471.474C319.102 465.061 315.498 461.033 308.979 461.033C305.375 461.033 302.46 462.517 301.029 464.584H299.863V449.903H295.358V488.434H299.863V473.965C299.863 469.248 303.043 465.061 307.813 465.061C312.318 465.061 314.597 467.605 314.597 472.428V488.434H319.102ZM338.846 461.033C330.472 461.033 325.702 467.181 325.702 475.078C325.702 482.975 330.472 489.123 338.846 489.123C347.167 489.123 351.99 482.975 351.99 475.078C351.99 467.181 347.167 461.033 338.846 461.033ZM338.846 485.201C332.91 485.201 330.207 480.325 330.207 475.078C330.207 469.831 332.91 464.955 338.846 464.955C344.729 464.955 347.485 469.831 347.485 475.078C347.485 480.325 344.729 485.201 338.846 485.201ZM370.256 470.467L365.698 483.664H364.532L361.352 461.722H357.006L360.822 488.434H367.818L372.482 474.919H373.595L378.259 488.434H385.149L389.018 461.722H384.672L381.598 483.664H380.432L375.98 470.467H370.256ZM416.617 461.722V453.666H412.112V461.722H407.501V465.644H412.112V480.961C412.112 486.632 415.504 488.434 421.281 488.434H423.348V484.406H421.387C417.783 484.406 416.617 483.028 416.617 480.325V465.644H423.348V461.722H416.617ZM441.844 461.033C433.47 461.033 428.7 467.181 428.7 475.078C428.7 482.975 433.47 489.123 441.844 489.123C450.165 489.123 454.988 482.975 454.988 475.078C454.988 467.181 450.165 461.033 441.844 461.033ZM441.844 485.201C435.908 485.201 433.205 480.325 433.205 475.078C433.205 469.831 435.908 464.955 441.844 464.955C447.727 464.955 450.483 469.831 450.483 475.078C450.483 480.325 447.727 485.201 441.844 485.201ZM496.167 449.903V464.584H495.001C493.517 462.676 491.079 461.033 486.839 461.033C479.472 461.033 475.126 467.022 475.126 475.078C475.126 482.975 479.472 489.123 486.839 489.123C491.079 489.123 493.676 487.427 495.16 485.572H496.326V488.434H500.672V449.903H496.167ZM487.846 485.201C482.493 485.201 479.631 481.014 479.631 475.078C479.631 469.142 482.493 464.955 487.846 464.955C493.782 464.955 496.22 469.831 496.22 475.078C496.22 480.325 493.782 485.201 487.846 485.201ZM520.878 461.033C512.504 461.033 507.734 467.181 507.734 475.078C507.734 482.975 512.504 489.123 520.878 489.123C529.199 489.123 534.022 482.975 534.022 475.078C534.022 467.181 529.199 461.033 520.878 461.033ZM520.878 485.201C514.942 485.201 512.239 480.325 512.239 475.078C512.239 469.831 514.942 464.955 520.878 464.955C526.761 464.955 529.517 469.831 529.517 475.078C529.517 480.325 526.761 485.201 520.878 485.201Z" fill="#274867"/>
<path d="M962.844 450.592H933.164V454.832H945.672V488.434H950.442V454.832H962.844V450.592ZM986.113 473.488C985.954 466.916 982.138 461.033 974.188 461.033C966.079 461.033 961.309 466.598 961.309 474.813C961.309 483.028 965.973 489.123 974.294 489.123C980.919 489.123 984.788 485.625 985.636 481.067H981.078C980.283 483.611 978.057 485.201 974.294 485.201C968.782 485.201 965.92 481.385 965.761 475.025H986.113V473.488ZM974.082 464.955C978.587 464.955 981.184 467.87 981.449 471.262H966.026C966.609 467.87 969.259 464.955 974.082 464.955ZM993.127 449.903V488.434H997.632V449.903H993.127ZM1006.33 449.903V488.434H1010.83V449.903H1006.33ZM1045.51 470.467L1040.95 483.664H1039.79L1036.61 461.722H1032.26L1036.08 488.434H1043.07L1047.74 474.919H1048.85L1053.51 488.434H1060.4L1064.27 461.722H1059.93L1056.85 483.664H1055.69L1051.23 470.467H1045.51ZM1094.66 488.434V471.474C1094.66 465.061 1091.06 461.033 1084.54 461.033C1080.94 461.033 1078.02 462.517 1076.59 464.584H1075.42V449.903H1070.92V488.434H1075.42V473.965C1075.42 469.248 1078.6 465.061 1083.37 465.061C1087.88 465.061 1090.16 467.605 1090.16 472.428V488.434H1094.66ZM1119.92 488.434H1124.16V470.255C1124.16 464.266 1119.87 461.033 1113.13 461.033C1107.15 461.033 1102.91 463.895 1102.53 468.824H1107.04C1107.25 466.492 1109.27 464.955 1113.24 464.955C1117.9 464.955 1119.76 467.287 1119.76 470.52V471.58H1111.07C1103.65 471.58 1100.84 476.138 1100.84 480.431C1100.84 484.989 1104.28 489.123 1110.43 489.123C1114.25 489.123 1117.11 487.692 1118.75 485.625H1119.92V488.434ZM1111.54 485.201C1107.57 485.201 1105.34 483.293 1105.34 480.272C1105.34 477.092 1107.36 475.184 1111.76 475.184H1119.76V477.622C1119.76 481.862 1116 485.201 1111.54 485.201ZM1138.61 461.722V453.666H1134.1V461.722H1129.49V465.644H1134.1V480.961C1134.1 486.632 1137.5 488.434 1143.27 488.434H1145.34V484.406H1143.38C1139.77 484.406 1138.61 483.028 1138.61 480.325V465.644H1145.34V461.722H1138.61ZM1173.7 461.722V453.666H1169.2V461.722H1164.58V465.644H1169.2V480.961C1169.2 486.632 1172.59 488.434 1178.36 488.434H1180.43V484.406H1178.47C1174.87 484.406 1173.7 483.028 1173.7 480.325V465.644H1180.43V461.722H1173.7ZM1198.93 461.033C1190.55 461.033 1185.78 467.181 1185.78 475.078C1185.78 482.975 1190.55 489.123 1198.93 489.123C1207.25 489.123 1212.07 482.975 1212.07 475.078C1212.07 467.181 1207.25 461.033 1198.93 461.033ZM1198.93 485.201C1192.99 485.201 1190.29 480.325 1190.29 475.078C1190.29 469.831 1192.99 464.955 1198.93 464.955C1204.81 464.955 1207.57 469.831 1207.57 475.078C1207.57 480.325 1204.81 485.201 1198.93 485.201ZM1253.25 449.903V464.584H1252.08C1250.6 462.676 1248.16 461.033 1243.92 461.033C1236.56 461.033 1232.21 467.022 1232.21 475.078C1232.21 482.975 1236.56 489.123 1243.92 489.123C1248.16 489.123 1250.76 487.427 1252.24 485.572H1253.41V488.434H1257.76V449.903H1253.25ZM1244.93 485.201C1239.58 485.201 1236.71 481.014 1236.71 475.078C1236.71 469.142 1239.58 464.955 1244.93 464.955C1250.87 464.955 1253.3 469.831 1253.3 475.078C1253.3 480.325 1250.87 485.201 1244.93 485.201ZM1277.96 461.033C1269.59 461.033 1264.82 467.181 1264.82 475.078C1264.82 482.975 1269.59 489.123 1277.96 489.123C1286.28 489.123 1291.11 482.975 1291.11 475.078C1291.11 467.181 1286.28 461.033 1277.96 461.033ZM1277.96 485.201C1272.03 485.201 1269.32 480.325 1269.32 475.078C1269.32 469.831 1272.03 464.955 1277.96 464.955C1283.84 464.955 1286.6 469.831 1286.6 475.078C1286.6 480.325 1283.84 485.201 1277.96 485.201Z" fill="#274867"/>
</g>
<defs>
<clipPath id="clip0">
<rect width="1474" height="738" fill="white"/>
</clipPath>
</defs>
</svg>