<?xml version="1.0" encoding="utf-8"?>
<!-- Generator: Adobe Illustrator 19.1.0, SVG Export Plug-In . SVG Version: 6.00 Build 0)  -->
<svg version="1.1" id="Layer_1" xmlns="http://www.w3.org/2000/svg" xmlns:xlink="http://www.w3.org/1999/xlink" x="0px" y="0px"
	 viewBox="0 0 486 108" style="enable-background:new 0 0 486 108;" xml:space="preserve">
<g>
	<g id="XMLID_10_">
		<g>
			<path id="XMLID_128_" style="fill:#231F20" d="M134.84839,4.36696l22.41515,0l-0.00002,44.53899l41.33662-44.53899l27.07285,0
				l-41.48227,43.22878l43.37444,58.65769l-26.9272-0.00001l-31.58487-43.37384L157.26352,75.1055l-0.00002,31.14793h-22.41516
				L134.84839,4.36696z"/>
			<path id="XMLID_125_" style="fill:#231F20" d="M215.65276,67.68176v-0.29012c0.00002-22.41514,18.04878-40.60953,42.35612-40.60953
				c24.16174,0,42.06482,17.9031,42.06482,40.31824v0.29129C300.0737,89.80679,282.02493,108,257.71756,108
				C233.55586,108,215.65276,90.09689,215.65276,67.68176z M278.24054,67.68176v-0.29012
				c0-11.49944-8.29645-21.54244-20.52295-21.54244c-12.66284,0-20.23166,9.75171-20.23166,21.25115v0.29129
				c-0.00002,11.49828,8.29643,21.54128,20.52295,21.54128C270.67172,88.93292,278.24054,79.18121,278.24054,67.68176z"/>
			<path id="XMLID_123_" style="fill:#231F20" d="M306.18082,84.12959V47.15941l-9.31537,0V28.23739h9.31537l0.00003-19.94094l22.12445,0
				v19.94094l18.33945,0v18.92202h-18.33948v33.332c0,5.09345,2.18289,7.56881,7.13187,7.56881
				c4.07571,0,7.71448-1.01892,10.91629-2.76665v17.75804c-4.65768,2.76548-10.043,4.51204-17.46619,4.51204
				C315.3511,107.56366,306.18079,102.17775,306.18082,84.12959z"/>
			<path id="XMLID_121_" style="fill:#231F20" d="M352.99567,0l22.12387,0l-0.00006,106.25345h-22.12384L352.99567,0z"/>
			<path id="XMLID_118_" style="fill:#231F20" d="M383.11664,0l23.28784,0v19.64966l-23.28787,0L383.11664,0z M383.69919,28.23739l22.12387,0
				l-0.00003,78.01606l-22.12387-0.00001L383.69919,28.23739z"/>
			<path id="XMLID_116_" style="fill:#231F20" d="M414.23929,28.2374l22.12387,0v11.06193
				c5.09464-6.54988,11.64453-12.51719,22.8515-12.51719c16.73914,0,26.49084,11.06193,26.49084,28.96503v50.50631
				l-22.12387-0.00001V62.73339c0-10.47935-4.94955-15.86526-13.39105-15.86526c-8.44269,0-13.82742,5.3859-13.82742,15.86525
				l-0.00003,43.52007h-22.12387L414.23929,28.2374z"/>
		</g>
	</g>
	<g>
		<linearGradient id="SVGID_1_" gradientUnits="userSpaceOnUse" x1="-11.37946" y1="92.36929" x2="70.30235" y2="10.68748">
			<stop  offset="0.10753" style="stop-color:#C757BC"/>
			<stop  offset="0.21383" style="stop-color:#D0609A"/>
			<stop  offset="0.42537" style="stop-color:#E1725C"/>
			<stop  offset="0.60485" style="stop-color:#EE7E2F"/>
			<stop  offset="0.74303" style="stop-color:#F58613"/>
			<stop  offset="0.82323" style="stop-color:#F88909"/>
		</linearGradient>
		<polygon style="fill:url(#SVGID_1_)" points="51.3125,4.31559 0.16667,58.10162 0.16667,106.18491 51.23876,55.02328 102.03596,4.31559 		"/>
		<linearGradient id="XMLID_2_" gradientUnits="userSpaceOnUse" x1="36.09638" y1="121.14526" x2="79.12573" y2="78.11591">
			<stop  offset="0.09677" style="stop-color:#0095D5"/>
			<stop  offset="0.30073" style="stop-color:#238AD9"/>
			<stop  offset="0.62106" style="stop-color:#557BDE"/>
			<stop  offset="0.86432" style="stop-color:#7472E2"/>
			<stop  offset="1" style="stop-color:#806EE3"/>
		</linearGradient>
		<polygon id="XMLID_11_" style="fill:url(#XMLID_2_)" points="0.1667,106.18496 51.2388,55.02347 102.03606,106.18496 		"/>
		<linearGradient id="SVGID_2_" gradientUnits="userSpaceOnUse" x1="-4.50558" y1="35.88097" x2="33.10503" y2="-1.72965">
			<stop  offset="0.09677" style="stop-color:#0095D5"/>
			<stop  offset="0.30073" style="stop-color:#238AD9"/>
			<stop  offset="0.62106" style="stop-color:#557BDE"/>
			<stop  offset="0.86432" style="stop-color:#7472E2"/>
			<stop  offset="1" style="stop-color:#806EE3"/>
		</linearGradient>
		<polygon style="fill:url(#SVGID_2_)" points="0.16672,4.31566 51.31255,4.31566 0.16672,58.10168 		"/>
	</g>
</g>
</svg>
