<?xml version="1.0" encoding="utf-8"?>
<!-- Generator: Adobe Illustrator 20.1.0, SVG Export Plug-In . SVG Version: 6.00 Build 0)  -->
<svg version="1.1" id="Layer_1" xmlns="http://www.w3.org/2000/svg" xmlns:xlink="http://www.w3.org/1999/xlink" x="0px" y="0px"
	 viewBox="0 0 128 128" style="enable-background:new 0 0 128 128;" xml:space="preserve">
<style type="text/css">
	.st0{fill:none;stroke:#082E51;stroke-width:1.4188;stroke-miterlimit:10;}
	.st1{fill:none;stroke:#082E51;stroke-width:1.4821;stroke-miterlimit:10;}
	.st2{fill:#007BFF;}
	.st3{fill:#082E51;}
</style>
<ellipse transform="matrix(0.9313 -0.3643 0.3643 0.9313 -17.2548 12.1646)" class="st0" cx="23.6" cy="51.8" rx="22" ry="19"/>
<ellipse transform="matrix(0.9313 -0.3643 0.3643 0.9313 -31.0896 23.9088)" class="st1" cx="47.8" cy="94.4" rx="23.9" ry="19"/>
<path class="st2" d="M29.1,53.4c-0.7,2.7-3,7.9-4.7,7.9c-1.7,0-5.3-6.8-13.5-8.6c-0.4-1.4,1.7-3.1,3.9-4s7,3.8,8.2,3.8
	c1.2,0,7.9-27.6,16.9-28.6C41.6,24.9,31.4,35.7,29.1,53.4z"/>
<g>
	<path class="st2" d="M53.9,34.8l-3.5,2l-0.7-1l8.3-4.7l0.7,1l-3.5,2l6.1,9l-1.2,0.7L53.9,34.8z"/>
	<path class="st2" d="M71.1,35.7l-3.8-1.6c-0.3,0.1-0.7,0.4-0.9,0.7L65,35.5l2.7,3.9l-1.2,0.7l-6.8-10l3.4-2c2-1.2,4-1,5.3,1
		c0.8,1.2,0.9,2.6-0.1,3.8l3.1,1.3c1.3,0.5,2.3,0.4,3,0.1l0.4,1C74.2,35.9,72.8,36.5,71.1,35.7z M65.8,33.7c1.6-0.9,2.5-2.1,1.4-3.6
		c-1-1.6-2.2-1.6-3.8-0.7l-2,1l2.7,4L65.8,33.7z"/>
	<path class="st2" d="M74.4,31l-4.4-6.5l1.3-0.7l4.4,6.4c1.4,2.2,3.4,2,4.8,1c1.6-0.9,2.5-2.3,0.9-4.7l-4.2-6.1l1.2-0.7l4.2,6.1
		c2.2,3.3,0.5,5.3-1.4,6.4C78.9,33.3,76.3,33.9,74.4,31z"/>
	<path class="st2" d="M81.4,18l5.9-3.3l0.7,0.9l-4.7,2.6l2.5,3.5l4.3-2.5l0.7,0.9l-4.4,2.6l2.5,3.5l4.9-2.7l0.7,0.9L88.1,28L81.4,18
		z"/>
</g>
<g>
	<path class="st3" d="M78.5,73.9l6.1-3.4l0.7,0.9l-4.9,2.7l2.6,3.8l4.6-2.6l0.7,0.9l-4.6,2.6l2.9,4.3l-1.2,0.7L78.5,73.9z"/>
	<path class="st3" d="M88.6,68.1l1.7-0.9l10.5,7.8l-1.3,0.8l-3.9-3l-4.2,2.3l1,4.6l-1.2,0.7L88.6,68.1z M94.7,72L90,68.4l1.3,5.5
		L94.7,72z"/>
	<path class="st3" d="M95.8,64.1l1.2-0.7l6.1,9l4.6-2.6l0.7,1l-5.7,3.3L95.8,64.1z"/>
	<path class="st3" d="M108.9,70l-0.3-1.2c1-0.1,1.8-0.3,2.9-0.9c1.2-0.7,2.2-1.8,1.4-3.1c-1.7-2.5-6.4,0.9-8.6-2.3
		c-1-1.6-0.3-3.3,1.4-4.2c1.2-0.7,2.1-0.9,2.9-0.9l0.3,1c-0.8,0.1-1.4,0.3-2.5,0.8c-1.2,0.7-1.7,1.6-1,2.5c1.6,2.2,6.5-0.9,8.6,2.2
		c1.3,2,0.3,3.6-1.8,4.8C110.7,69.7,109.7,69.8,108.9,70z"/>
	<path class="st3" d="M111.4,55.4l5.9-3.3l0.7,0.9l-4.7,2.6l2.5,3.5l4.3-2.5l0.7,0.9l-4.3,2.5l2.5,3.5l4.9-2.7l0.7,0.9l-6.1,3.5
		L111.4,55.4z"/>
</g>
</svg>
